<svg xmlns="http://www.w3.org/2000/svg" width="600" height="600" viewBox="0 0 600 600" version="1.1">
	<path d="M 60 240.500 L 60 245 168 245 L 276 245 276 240.500 L 276 236 168 236 L 60 236 60 240.500 M 61 295.500 L 61 341 67 341 L 73 341 73 322.612 L 73 304.223 90.750 303.778 C 115.260 303.164, 121.012 300.825, 127.095 289 C 128.938 285.417, 129.414 282.870, 129.432 276.500 C 129.452 269.482, 129.090 267.834, 126.478 263.073 C 122.772 256.319, 117.215 252.591, 108.621 251.095 C 105.164 250.493, 93.036 250, 81.668 250 L 61 250 61 295.500 M 277 295.500 L 277 341 282.988 341 L 288.976 341 289.238 302.961 L 289.500 264.921 301.462 302.961 L 313.424 341 320.466 341 L 327.507 341 339.503 302.945 L 351.500 264.890 351.762 302.945 L 352.024 341 358.012 341 L 364 341 364 295.500 L 364 250 354.678 250 L 345.356 250 335.025 282.250 C 329.343 299.988, 323.829 317.354, 322.772 320.842 C 321.715 324.330, 320.658 326.991, 320.422 326.756 C 320.029 326.362, 296 251.206, 296 250.369 C 296 250.166, 291.725 250, 286.500 250 L 277 250 277 295.500 M 384 295.500 L 384 341 418 341 L 452 341 452 335.500 L 452 330 424 330 L 396 330 396 314.500 L 396 299 421.500 299 L 447 299 447 293.500 L 447 288 421.500 288 L 396 288 396 274.500 L 396 261 423 261 L 450 261 450 255.500 L 450 250 417 250 L 384 250 384 295.500 M 469 295.500 L 469 341 503 341 L 537 341 537 335.500 L 537 330 509 330 L 481 330 481 314.500 L 481 299 506.500 299 L 532 299 532 293.500 L 532 288 506.500 288 L 481 288 481 274.500 L 481 261 508 261 L 535 261 535 255.500 L 535 250 502 250 L 469 250 469 295.500 M 73 277.066 L 73 293.132 89.750 292.816 C 108.764 292.457, 112.728 291.279, 116.219 284.950 C 118.712 280.431, 118.266 271.194, 115.364 267.237 C 111.369 261.787, 108.149 261.003, 89.750 261.002 L 73 261 73 277.066 M 162.344 274.975 C 153.242 276.921, 145.934 282.610, 143.508 289.637 L 142.175 293.500 147.329 294.276 C 150.508 294.755, 152.607 294.679, 152.808 294.077 C 153.644 291.567, 157.653 287.625, 160.636 286.379 C 164.923 284.588, 176.128 284.609, 180.454 286.416 C 184.810 288.236, 187.225 291.941, 186.819 296.179 L 186.500 299.500 178 301.100 C 173.325 301.980, 166.138 303.233, 162.028 303.885 C 149.574 305.860, 142.939 311.275, 141.433 320.694 C 140.053 329.321, 145.634 337.923, 154.276 340.489 C 163.676 343.281, 173.436 341.916, 182.317 336.568 L 187.801 333.266 189.320 337.133 C 190.824 340.962, 190.893 341, 196.273 341 L 201.707 341 200.354 335.782 C 199.443 332.273, 198.986 324.005, 198.956 310.532 C 198.900 284.744, 197.721 281.045, 188.202 276.787 C 183.257 274.574, 168.916 273.569, 162.344 274.975 M 210.612 279.250 C 211.449 281.587, 216.630 296.266, 222.123 311.868 L 232.112 340.237 230.419 345.619 C 229.488 348.579, 227.564 352.163, 226.145 353.583 C 223.956 355.771, 222.836 356.113, 218.780 355.832 L 213.996 355.500 214.634 360.500 C 214.984 363.250, 215.457 365.710, 215.685 365.966 C 215.912 366.222, 218.697 366.447, 221.874 366.466 C 229.498 366.511, 233.768 363.380, 237.875 354.731 C 240.346 349.529, 266 277.318, 266 275.565 C 266 275.254, 263.525 275, 260.500 275 C 257.475 275, 255 275.145, 255 275.322 C 255 276.073, 237.908 324.425, 237.498 324.835 C 237.250 325.083, 236.852 324.659, 236.614 323.893 C 236.376 323.127, 232.656 311.813, 228.347 298.750 L 220.513 275 214.801 275 L 209.089 275 210.612 279.250 M 184.500 310.569 C 183.950 310.796, 177.745 311.844, 170.712 312.900 C 157.098 314.944, 153.418 316.487, 152.389 320.586 C 150.876 326.616, 156.530 331, 165.819 331 C 178.069 331, 187 323.853, 187 314.050 C 187 310.146, 186.664 309.679, 184.500 310.569" stroke="none" fill="black" fill-rule="evenodd"/>
</svg>